<?xml version="1.0" standalone="no"?>
<!DOCTYPE svg PUBLIC "-//W3C//DTD SVG 1.1//EN" "http://www.w3.org/Graphics/SVG/1.1/DTD/svg11.dtd"><svg t="1689326392207" class="icon" viewBox="0 0 1024 1024" version="1.1" xmlns="http://www.w3.org/2000/svg" p-id="9950" xmlns:xlink="http://www.w3.org/1999/xlink" width="128" height="128">
  <path d="M363.15648 126.7968h-189.0816C126.0544 126.7968 87.04 162.80576 87.04 210.816v192.03584c0 48.01024 39.0144 84.0192 84.03456 84.0192h192.08192c48.01536 0 84.03456-39.00928 84.03456-84.0192V210.816c0-48.01024-36.0192-84.0192-84.03456-84.0192z m549.2224 120.02304l-135.05536-135.02464c-33.01376-33.00864-87.03488-33.00864-120.04864 0l-135.05536 135.02464c-15.0016 15.0016-24.0128 36.00896-24.0128 60.01664 0 24.00256 9.0112 45.0048 24.0128 60.0064l135.05536 135.02976c15.00672 15.0016 36.01408 24.00768 60.02688 24.00768s45.01504-9.00608 60.02176-24.00768L912.384 366.848c15.00672-15.0016 24.0128-36.00896 24.0128-60.01152 3.00032-24.00768-6.00064-45.00992-24.0128-60.01664zM363.1616 576.88576h-189.0816c-48.02048 0-84.03456 39.0144-84.03456 84.0192v192.03584c0 48.01024 39.0144 84.0192 84.03456 84.0192h189.0816c48.01536 0 84.03456-39.00928 84.03456-84.0192v-192.03584c0-48.01024-36.0192-84.0192-84.03456-84.0192z m450.18624 0H621.2608c-48.02048 0-84.03456 39.0144-84.03456 84.0192v192.03584c0 48.01024 39.0144 84.0192 84.03456 84.0192h192.08192c48.01536 0 84.03456-39.00928 84.03456-84.0192v-192.03584c0-48.01024-36.0192-84.0192-84.03456-84.0192z" fill="#c3c4c5" p-id="9951"></path>
</svg>